<svg width="1018" height="445" viewBox="0 0 1018 445" fill="none" xmlns="http://www.w3.org/2000/svg">
<g clip-path="url(#clip0_3_44)">
<path fill-rule="evenodd" clip-rule="evenodd" d="M4.99983 -5.4e-05H322C324.761 -5.4e-05 327 2.23857 327 4.99997V48.9999C327 51.7613 324.761 53.9999 322 53.9999H4.99983C2.23831 53.9999 0 51.7613 0 48.9999V4.99997C0 2.23857 2.23831 -5.4e-05 4.99983 -5.4e-05Z" fill="#58AF9B"/>
<path fill-rule="evenodd" clip-rule="evenodd" d="M351 -5.4e-05H668C670.761 -5.4e-05 673 2.23857 673 4.99997V48.9999C673 51.7613 670.761 53.9999 668 53.9999H351C348.238 53.9999 346 51.7613 346 48.9999V4.99997C346 2.23857 348.238 -5.4e-05 351 -5.4e-05Z" fill="#58AF9B"/>
<path fill-rule="evenodd" clip-rule="evenodd" d="M696 -5.4e-05H1013C1015.76 -5.4e-05 1018 2.23857 1018 4.99997V48.9999C1018 51.7613 1015.76 53.9999 1013 53.9999H696C693.238 53.9999 691 51.7613 691 48.9999V4.99997C691 2.23857 693.238 -5.4e-05 696 -5.4e-05Z" fill="#58AF9B"/>
<path fill-rule="evenodd" clip-rule="evenodd" d="M4.9994 65.9999H1013C1015.76 65.9999 1018 68.2386 1018 71V115C1018 117.761 1015.76 120 1013 120H4.9994C2.23858 120 0 117.761 0 115V71C0 68.2386 2.23858 65.9999 4.9994 65.9999Z" fill="#E1F8F6"/>
<path fill-rule="evenodd" clip-rule="evenodd" d="M4.9994 131H1013C1015.76 131 1018 133.238 1018 136V180C1018 182.761 1015.76 185 1013 185H4.9994C2.23858 185 0 182.761 0 180V136C0 133.238 2.23858 131 4.9994 131Z" fill="#E1F8F6"/>
<path fill-rule="evenodd" clip-rule="evenodd" d="M4.9994 194H1013C1015.76 194 1018 196.238 1018 199V243C1018 245.761 1015.76 248 1013 248H4.9994C2.23858 248 0 245.761 0 243V199C0 196.238 2.23858 194 4.9994 194Z" fill="#E1F8F6"/>
<path fill-rule="evenodd" clip-rule="evenodd" d="M4.9994 259H1013C1015.76 259 1018 261.239 1018 264V308C1018 310.761 1015.76 313 1013 313H4.9994C2.23858 313 0 310.761 0 308V264C0 261.239 2.23858 259 4.9994 259Z" fill="#E1F8F6"/>
<path fill-rule="evenodd" clip-rule="evenodd" d="M4.9994 326H1013C1015.76 326 1018 328.238 1018 331V375C1018 377.761 1015.76 380 1013 380H4.9994C2.23858 380 0 377.761 0 375V331C0 328.238 2.23858 326 4.9994 326Z" fill="#E1F8F6"/>
<path fill-rule="evenodd" clip-rule="evenodd" d="M4.9994 391H1013C1015.76 391 1018 393.239 1018 396V440C1018 442.761 1015.76 445 1013 445H4.9994C2.23858 445 0 442.761 0 440V396C0 393.239 2.23858 391 4.9994 391Z" fill="#E1F8F6"/>
</g>
<defs>
<clipPath id="clip0_3_44">
<rect width="1018" height="445" fill="white"/>
</clipPath>
</defs>
</svg>
